<?xml version="1.0" encoding="UTF-8" standalone="no"?>
<!DOCTYPE svg PUBLIC "-//W3C//DTD SVG 1.1//EN"
 "http://www.w3.org/Graphics/SVG/1.1/DTD/svg11.dtd">
<!-- Generated by graphviz version 2.43.0 (0)
 -->
<!-- Title: %3 Pages: 1 -->
<svg width="1061pt" height="1278pt"
 viewBox="0.00 0.00 1060.54 1278.40" xmlns="http://www.w3.org/2000/svg" xmlns:xlink="http://www.w3.org/1999/xlink">
<g id="graph0" class="graph" transform="scale(1 1) rotate(0) translate(4 1274.4)">
<title>%3</title>
<polygon fill="white" stroke="transparent" points="-4,4 -4,-1274.4 1056.54,-1274.4 1056.54,4 -4,4"/>
<!-- init -->
<g id="node1" class="node">
<title>init</title>
<ellipse fill="none" stroke="black" cx="734.6" cy="-1148.11" rx="118.09" ry="118.09"/>
<ellipse fill="none" stroke="black" cx="734.6" cy="-1148.11" rx="122.08" ry="122.08"/>
<text text-anchor="middle" x="734.6" y="-1144.41" font-family="Times,serif" font-size="14.00">OSH_FSM_STATE_INIT</text>
</g>
<!-- init&#45;&gt;init -->
<g id="edge1" class="edge">
<title>init&#45;&gt;init</title>
<path fill="none" stroke="black" d="M854.83,-1170.62C867.08,-1166.17 874.89,-1158.66 874.89,-1148.11 874.89,-1140.53 870.85,-1134.52 864.04,-1130.09"/>
<polygon fill="black" stroke="black" points="865.36,-1126.84 854.83,-1125.61 862.29,-1133.13 865.36,-1126.84"/>
<text text-anchor="middle" x="908.39" y="-1144.41" font-family="Times,serif" font-size="14.00">power on</text>
</g>
<!-- idle -->
<g id="node2" class="node">
<title>idle</title>
<ellipse fill="none" stroke="black" cx="458.6" cy="-849.94" rx="120.78" ry="120.78"/>
<ellipse fill="none" stroke="black" cx="458.6" cy="-849.94" rx="124.78" ry="124.78"/>
<text text-anchor="middle" x="458.6" y="-846.24" font-family="Times,serif" font-size="14.00">OSH_FSM_STATE_IDLE</text>
</g>
<!-- init&#45;&gt;idle -->
<g id="edge2" class="edge">
<title>init&#45;&gt;idle</title>
<path fill="none" stroke="black" d="M629.03,-1085.88C597.31,-1064.05 564.18,-1037.45 538.6,-1007.82 529.6,-997.4 521.28,-985.78 513.7,-973.71"/>
<polygon fill="black" stroke="black" points="516.49,-971.58 508.3,-964.86 510.52,-975.22 516.49,-971.58"/>
<text text-anchor="middle" x="566.6" y="-996.62" font-family="Times,serif" font-size="14.00">connect</text>
</g>
<!-- idle&#45;&gt;init -->
<g id="edge3" class="edge">
<title>idle&#45;&gt;init</title>
<path fill="none" stroke="black" d="M544.94,-940.28C561.51,-957.63 578.66,-975.73 594.6,-992.82 611.48,-1010.92 629.34,-1030.37 646.44,-1049.15"/>
<polygon fill="black" stroke="black" points="643.89,-1051.54 653.21,-1056.58 649.07,-1046.83 643.89,-1051.54"/>
<text text-anchor="middle" x="644.1" y="-996.62" font-family="Times,serif" font-size="14.00">disconnect</text>
</g>
<!-- ongo -->
<g id="node3" class="node">
<title>ongo</title>
<ellipse fill="none" stroke="black" cx="562.6" cy="-524.46" rx="145.67" ry="145.67"/>
<ellipse fill="none" stroke="black" cx="562.6" cy="-524.46" rx="149.67" ry="149.67"/>
<text text-anchor="middle" x="562.6" y="-520.76" font-family="Times,serif" font-size="14.00">OSH_FSM_STATE_ONGOING</text>
</g>
<!-- idle&#45;&gt;ongo -->
<g id="edge5" class="edge">
<title>idle&#45;&gt;ongo</title>
<path fill="none" stroke="black" d="M453.05,-725.12C454.44,-713.82 456.55,-702.65 459.6,-692.05 463.01,-680.18 467.53,-668.34 472.76,-656.74"/>
<polygon fill="black" stroke="black" points="476.02,-658.04 477.11,-647.5 469.69,-655.06 476.02,-658.04"/>
<text text-anchor="middle" x="522.6" y="-695.85" font-family="Times,serif" font-size="14.00">request or invoke</text>
</g>
<!-- save -->
<g id="node4" class="node">
<title>save</title>
<ellipse fill="none" stroke="black" cx="255.6" cy="-524.46" rx="135.37" ry="135.37"/>
<ellipse fill="none" stroke="black" cx="255.6" cy="-524.46" rx="139.38" ry="139.38"/>
<text text-anchor="middle" x="255.6" y="-520.76" font-family="Times,serif" font-size="14.00">OSH_FSM_STATE_SAVING</text>
</g>
<!-- idle&#45;&gt;save -->
<g id="edge4" class="edge">
<title>idle&#45;&gt;save</title>
<path fill="none" stroke="black" d="M373.81,-758.07C360.51,-741.71 347.56,-724.33 336.6,-707.05 327.8,-693.15 319.46,-678.14 311.73,-662.91"/>
<polygon fill="black" stroke="black" points="314.84,-661.31 307.25,-653.92 308.58,-664.43 314.84,-661.31"/>
<text text-anchor="middle" x="394.6" y="-695.85" font-family="Times,serif" font-size="14.00">timeout T_SAVE</text>
</g>
<!-- upgrade -->
<g id="node5" class="node">
<title>upgrade</title>
<ellipse fill="none" stroke="black" cx="803.6" cy="-161.94" rx="157.87" ry="157.87"/>
<ellipse fill="none" stroke="black" cx="803.6" cy="-161.94" rx="161.87" ry="161.87"/>
<text text-anchor="middle" x="803.6" y="-158.24" font-family="Times,serif" font-size="14.00">OSH_FSM_STATE_UPGRADING</text>
</g>
<!-- idle&#45;&gt;upgrade -->
<g id="edge6" class="edge">
<title>idle&#45;&gt;upgrade</title>
<path fill="none" stroke="black" d="M334.72,-831.41C241.07,-810.95 118.56,-767.13 57.6,-674.05 -15.24,-562.81 -22.55,-480.97 57.6,-374.87 126.84,-283.23 435.16,-219.6 633.12,-187.35"/>
<polygon fill="black" stroke="black" points="633.73,-190.8 643.04,-185.75 632.61,-183.89 633.73,-190.8"/>
<text text-anchor="middle" x="82.6" y="-520.76" font-family="Times,serif" font-size="14.00">update</text>
</g>
<!-- ongo&#45;&gt;init -->
<g id="edge9" class="edge">
<title>ongo&#45;&gt;init</title>
<path fill="none" stroke="black" d="M669.15,-629.76C683.71,-649.1 696.69,-670.16 705.6,-692.05 747.57,-795.16 752.18,-922.31 747.81,-1015.97"/>
<polygon fill="black" stroke="black" points="744.31,-1015.91 747.3,-1026.07 751.3,-1016.26 744.31,-1015.91"/>
<text text-anchor="middle" x="787.1" y="-846.24" font-family="Times,serif" font-size="14.00">disconnect</text>
</g>
<!-- ongo&#45;&gt;idle -->
<g id="edge7" class="edge">
<title>ongo&#45;&gt;idle</title>
<path fill="none" stroke="black" d="M593.65,-671.21C592.5,-683.52 589.97,-695.62 585.6,-707.05 578.82,-724.8 568.68,-741.73 557.03,-757.32"/>
<polygon fill="black" stroke="black" points="554.17,-755.29 550.81,-765.34 559.7,-759.58 554.17,-755.29"/>
<text text-anchor="middle" x="645.6" y="-695.85" font-family="Times,serif" font-size="14.00">timeout T_IDLE</text>
</g>
<!-- ongo&#45;&gt;ongo -->
<g id="edge8" class="edge">
<title>ongo&#45;&gt;ongo</title>
<path fill="none" stroke="black" d="M710.23,-549.67C722.54,-544.25 730.19,-535.84 730.19,-524.46 730.19,-516.1 726.06,-509.34 719,-504.2"/>
<polygon fill="black" stroke="black" points="720.66,-501.12 710.23,-499.24 717.22,-507.21 720.66,-501.12"/>
<text text-anchor="middle" x="793.19" y="-520.76" font-family="Times,serif" font-size="14.00">request or invoke</text>
</g>
<!-- ongo&#45;&gt;upgrade -->
<g id="edge10" class="edge">
<title>ongo&#45;&gt;upgrade</title>
<path fill="none" stroke="black" d="M645.37,-399.64C665.69,-369.24 687.6,-336.47 708.45,-305.28"/>
<polygon fill="black" stroke="black" points="711.36,-307.22 714.01,-296.96 705.54,-303.33 711.36,-307.22"/>
<text text-anchor="middle" x="707.6" y="-345.67" font-family="Times,serif" font-size="14.00">update</text>
</g>
<!-- save&#45;&gt;idle -->
<g id="edge14" class="edge">
<title>save&#45;&gt;idle</title>
<path fill="none" stroke="black" d="M176.92,-639.67C170.06,-662.66 169.86,-686.16 182.6,-707.05 214.71,-759.65 273.22,-793.57 328.14,-815.01"/>
<polygon fill="black" stroke="black" points="327.03,-818.33 337.63,-818.6 329.51,-811.79 327.03,-818.33"/>
<text text-anchor="middle" x="253.6" y="-695.85" font-family="Times,serif" font-size="14.00">timeout T_WAKEUP</text>
</g>
<!-- upgrade&#45;&gt;init -->
<g id="edge12" class="edge">
<title>upgrade&#45;&gt;init</title>
<path fill="none" stroke="black" d="M853.94,-316.05C858.74,-335.66 862.84,-355.61 865.6,-374.87 884.54,-507.08 870.54,-847.69 829.6,-974.82 823.06,-995.13 814.06,-1015.77 804.19,-1035.39"/>
<polygon fill="black" stroke="black" points="801.06,-1033.83 799.6,-1044.32 807.29,-1037.03 801.06,-1033.83"/>
<text text-anchor="middle" x="901.6" y="-695.85" font-family="Times,serif" font-size="14.00">complete</text>
</g>
<!-- upgrade&#45;&gt;init -->
<g id="edge13" class="edge">
<title>upgrade&#45;&gt;init</title>
<path fill="none" stroke="black" d="M871.54,-309.12C914.24,-417.75 957.89,-570.19 938.6,-707.05 921.32,-829.67 916.31,-863.73 861.6,-974.82 849.76,-998.87 834.5,-1023.05 818.7,-1045.37"/>
<polygon fill="black" stroke="black" points="815.85,-1043.34 812.86,-1053.51 821.54,-1047.43 815.85,-1043.34"/>
<text text-anchor="middle" x="968.6" y="-695.85" font-family="Times,serif" font-size="14.00">rollback</text>
</g>
<!-- upgrade&#45;&gt;upgrade -->
<g id="edge11" class="edge">
<title>upgrade&#45;&gt;upgrade</title>
<path fill="none" stroke="black" d="M963.57,-188.23C975.92,-182.42 983.54,-173.65 983.54,-161.94 983.54,-153.33 979.43,-146.32 972.36,-140.9"/>
<polygon fill="black" stroke="black" points="973.95,-137.77 963.57,-135.64 970.35,-143.78 973.95,-137.77"/>
<text text-anchor="middle" x="1018.04" y="-158.24" font-family="Times,serif" font-size="14.00">download</text>
</g>
</g>
</svg>
