<?xml version="1.0" encoding="UTF-8" standalone="no"?>
<!DOCTYPE svg PUBLIC "-//W3C//DTD SVG 1.1//EN"
 "http://www.w3.org/Graphics/SVG/1.1/DTD/svg11.dtd">
<!-- Generated by graphviz version 2.43.0 (0)
 -->
<!-- Title: %3 Pages: 1 -->
<svg width="740pt" height="928pt"
 viewBox="0.00 0.00 740.12 928.23" xmlns="http://www.w3.org/2000/svg" xmlns:xlink="http://www.w3.org/1999/xlink">
<g id="graph0" class="graph" transform="scale(1 1) rotate(0) translate(4 924.23)">
<title>%3</title>
<polygon fill="white" stroke="transparent" points="-4,4 -4,-924.23 736.12,-924.23 736.12,4 -4,4"/>
<!-- init -->
<g id="node1" class="node">
<title>init</title>
<ellipse fill="none" stroke="black" cx="404.19" cy="-797.94" rx="118.09" ry="118.09"/>
<ellipse fill="none" stroke="black" cx="404.19" cy="-797.94" rx="122.08" ry="122.08"/>
<text text-anchor="middle" x="404.19" y="-794.24" font-family="Times,serif" font-size="14.00">OSH_FSM_STATE_INIT</text>
</g>
<!-- init&#45;&gt;init -->
<g id="edge1" class="edge">
<title>init&#45;&gt;init</title>
<path fill="none" stroke="black" d="M524.42,-820.44C536.66,-815.99 544.48,-808.49 544.48,-797.94 544.48,-790.36 540.44,-784.35 533.62,-779.92"/>
<polygon fill="black" stroke="black" points="534.94,-776.67 524.42,-775.44 531.88,-782.96 534.94,-776.67"/>
<text text-anchor="middle" x="577.98" y="-794.24" font-family="Times,serif" font-size="14.00">power on</text>
</g>
<!-- idle -->
<g id="node2" class="node">
<title>idle</title>
<ellipse fill="none" stroke="black" cx="178.19" cy="-499.76" rx="120.78" ry="120.78"/>
<ellipse fill="none" stroke="black" cx="178.19" cy="-499.76" rx="124.78" ry="124.78"/>
<text text-anchor="middle" x="178.19" y="-496.06" font-family="Times,serif" font-size="14.00">OSH_FSM_STATE_IDLE</text>
</g>
<!-- init&#45;&gt;idle -->
<g id="edge2" class="edge">
<title>init&#45;&gt;idle</title>
<path fill="none" stroke="black" d="M321.11,-707.59C307.02,-691.33 292.86,-674.25 280.19,-657.65 269.89,-644.16 259.55,-629.64 249.61,-615.07"/>
<polygon fill="black" stroke="black" points="252.31,-612.82 243.8,-606.5 246.51,-616.74 252.31,-612.82"/>
<text text-anchor="middle" x="308.19" y="-646.45" font-family="Times,serif" font-size="14.00">connect</text>
</g>
<!-- idle&#45;&gt;init -->
<g id="edge3" class="edge">
<title>idle&#45;&gt;init</title>
<path fill="none" stroke="black" d="M276.65,-577.39C298.05,-597.1 319.31,-619.36 336.19,-642.65 343.37,-652.56 350.02,-663.35 356.12,-674.47"/>
<polygon fill="black" stroke="black" points="353.11,-676.26 360.9,-683.45 359.29,-672.98 353.11,-676.26"/>
<text text-anchor="middle" x="382.69" y="-646.45" font-family="Times,serif" font-size="14.00">disconnect</text>
</g>
<!-- idle&#45;&gt;idle -->
<g id="edge5" class="edge">
<title>idle&#45;&gt;idle</title>
<path fill="none" stroke="black" d="M301.15,-522.69C313.33,-518.1 321.08,-510.45 321.08,-499.76 321.08,-492.08 317.08,-485.96 310.3,-481.43"/>
<polygon fill="black" stroke="black" points="311.66,-478.19 301.15,-476.83 308.51,-484.45 311.66,-478.19"/>
<text text-anchor="middle" x="384.08" y="-496.06" font-family="Times,serif" font-size="14.00">request or invoke</text>
</g>
<!-- save -->
<g id="node3" class="node">
<title>save</title>
<ellipse fill="none" stroke="black" cx="139.19" cy="-161.94" rx="135.37" ry="135.37"/>
<ellipse fill="none" stroke="black" cx="139.19" cy="-161.94" rx="139.38" ry="139.38"/>
<text text-anchor="middle" x="139.19" y="-158.24" font-family="Times,serif" font-size="14.00">OSH_FSM_STATE_SAVING</text>
</g>
<!-- idle&#45;&gt;save -->
<g id="edge4" class="edge">
<title>idle&#45;&gt;save</title>
<path fill="none" stroke="black" d="M89.65,-411.67C77.18,-394.74 66.22,-376.21 59.19,-356.87 50.99,-334.34 52.3,-310.56 58.77,-287.68"/>
<polygon fill="black" stroke="black" points="62.17,-288.52 61.85,-277.93 55.5,-286.42 62.17,-288.52"/>
<text text-anchor="middle" x="117.19" y="-345.67" font-family="Times,serif" font-size="14.00">timeout T_SAVE</text>
</g>
<!-- upgrade -->
<g id="node4" class="node">
<title>upgrade</title>
<ellipse fill="none" stroke="black" cx="483.19" cy="-161.94" rx="157.87" ry="157.87"/>
<ellipse fill="none" stroke="black" cx="483.19" cy="-161.94" rx="161.87" ry="161.87"/>
<text text-anchor="middle" x="483.19" y="-158.24" font-family="Times,serif" font-size="14.00">OSH_FSM_STATE_UPGRADING</text>
</g>
<!-- idle&#45;&gt;upgrade -->
<g id="edge6" class="edge">
<title>idle&#45;&gt;upgrade</title>
<path fill="none" stroke="black" d="M268.64,-413.17C287.06,-394.94 306.03,-375.55 323.19,-356.87 340.67,-337.85 358.61,-317.25 375.88,-296.83"/>
<polygon fill="black" stroke="black" points="378.7,-298.92 382.46,-289.01 373.35,-294.41 378.7,-298.92"/>
<text text-anchor="middle" x="358.19" y="-345.67" font-family="Times,serif" font-size="14.00">update</text>
</g>
<!-- save&#45;&gt;idle -->
<g id="edge10" class="edge">
<title>save&#45;&gt;idle</title>
<path fill="none" stroke="black" d="M169.09,-298.34C171.52,-312.98 173.64,-327.7 175.19,-341.87 175.99,-349.22 176.66,-356.76 177.21,-364.39"/>
<polygon fill="black" stroke="black" points="173.72,-364.7 177.86,-374.45 180.7,-364.25 173.72,-364.7"/>
<text text-anchor="middle" x="248.19" y="-345.67" font-family="Times,serif" font-size="14.00">timeout T_WAKEUP</text>
</g>
<!-- upgrade&#45;&gt;init -->
<g id="edge8" class="edge">
<title>upgrade&#45;&gt;init</title>
<path fill="none" stroke="black" d="M483.01,-324.01C480.6,-413.21 473.76,-525.73 456.19,-624.65 453.45,-640.06 449.79,-656.04 445.68,-671.78"/>
<polygon fill="black" stroke="black" points="442.27,-670.97 443.06,-681.53 449.03,-672.78 442.27,-670.97"/>
<text text-anchor="middle" x="513.19" y="-496.06" font-family="Times,serif" font-size="14.00">complete</text>
</g>
<!-- upgrade&#45;&gt;init -->
<g id="edge9" class="edge">
<title>upgrade&#45;&gt;init</title>
<path fill="none" stroke="black" d="M541.26,-313.11C568.14,-405.33 586.9,-524.55 550.19,-624.65 539.35,-654.21 520.94,-682.18 500.78,-706.65"/>
<polygon fill="black" stroke="black" points="497.96,-704.57 494.18,-714.47 503.31,-709.08 497.96,-704.57"/>
<text text-anchor="middle" x="599.19" y="-496.06" font-family="Times,serif" font-size="14.00">rollback</text>
</g>
<!-- upgrade&#45;&gt;upgrade -->
<g id="edge7" class="edge">
<title>upgrade&#45;&gt;upgrade</title>
<path fill="none" stroke="black" d="M643.16,-188.23C655.51,-182.42 663.12,-173.65 663.12,-161.94 663.12,-153.33 659.02,-146.32 651.94,-140.9"/>
<polygon fill="black" stroke="black" points="653.54,-137.77 643.16,-135.64 649.94,-143.78 653.54,-137.77"/>
<text text-anchor="middle" x="697.62" y="-158.24" font-family="Times,serif" font-size="14.00">download</text>
</g>
</g>
</svg>
